<?xml version="1.0" encoding="iso-8859-1"?>
<!-- Generator: Adobe Illustrator 16.0.0, SVG Export Plug-In . SVG Version: 6.00 Build 0)  -->
<!DOCTYPE svg PUBLIC "-//W3C//DTD SVG 1.1//EN" "http://www.w3.org/Graphics/SVG/1.1/DTD/svg11.dtd">
<svg version="1.1" id="Capa_1" xmlns="http://www.w3.org/2000/svg" xmlns:xlink="http://www.w3.org/1999/xlink" x="0px" y="0px"
	 width="235.512px" height="235.512px" fill="rgb(231, 87, 39)" viewBox="0 0 235.512 235.512" style="enable-background:new 0 0 235.512 235.512;"
	 xml:space="preserve">
<g>
	<path d="M233.696,131.172l-38.391-17.801c-0.729-0.307-1.567-0.383-2.316-0.104l-14.619,5.085L159.059,68.56
		c-0.385-0.966-1.207-1.671-2.225-1.896L14.687,35.002c-1.31-0.247-2.645,0.291-3.338,1.445c-0.681,1.146-0.555,2.606,0.323,3.618
		l29.637,34.266L3.484,69.55c-1.262-0.165-2.542,0.495-3.14,1.655c-0.595,1.146-0.407,2.561,0.471,3.526l114.781,124.839
		c0.613,0.646,1.453,0.998,2.292,0.998c0.683,0,1.364-0.217,1.939-0.674l68.685-54.938l44.446-7.914
		c1.343-0.245,2.365-1.319,2.533-2.666C235.645,133.036,234.915,131.753,233.696,131.172z M49.455,74.291L22.473,43.113
		L153.86,72.367l18.635,48.025l-11.897,4.12l-18.522-36.095c-0.465-0.898-1.347-1.525-2.377-1.651L49.834,75.407
		C49.708,75.04,49.738,74.613,49.455,74.291z M186.609,139.006c-0.497,0.093-0.981,0.309-1.387,0.629l-27.783,22.218l-7.357-7.29
		c-1.198-1.218-3.174-1.206-4.396,0.017c-1.202,1.202-1.187,3.166,0.024,4.376l6.845,6.784l-34.382,27.516L82.869,154.84
		l56.124-12.392c1.142-0.261,2.04-1.126,2.341-2.252c0.288-1.142-0.076-2.332-0.958-3.105l-13.309-11.686
		c-1.291-1.15-3.246-1.026-4.391,0.276c-1.132,1.29-0.998,3.238,0.291,4.388l8.704,7.65l-53.664,11.866L53.2,122.6l56.298-6.853
		c1.16-0.145,2.142-0.922,2.541-2.016c0.403-1.116,0.143-2.331-0.651-3.178L99.268,97.648c-1.178-1.258-3.132-1.305-4.382-0.15
		c-1.246,1.154-1.31,3.132-0.148,4.382l7.937,8.443l-54.637,6.659l-36.96-40.199L137.27,92.741l19.02,37.021
		c0.689,1.379,2.332,2.056,3.764,1.503l33.758-11.714l28.316,13.116L186.609,139.006z"/>
</g>
<g>
</g>
<g>
</g>
<g>
</g>
<g>
</g>
<g>
</g>
<g>
</g>
<g>
</g>
<g>
</g>
<g>
</g>
<g>
</g>
<g>
</g>
<g>
</g>
<g>
</g>
<g>
</g>
<g>
</g>
</svg>
